Coordinates
version=1
nRows=14
nColumns=40
inDegrees=yes

Units are S.I. units (second, meters, Newtons, ...)
Angles are in degrees.

endheader
time	pelvis_tilt	pelvis_list	pelvis_rotation	pelvis_tx	pelvis_ty	pelvis_tz	hip_flexion_r	hip_adduction_r	hip_rotation_r	knee_angle_r	knee_angle_r_beta	ankle_angle_r	subtalar_angle_r	mtp_angle_r	hip_flexion_l	hip_adduction_l	hip_rotation_l	knee_angle_l	knee_angle_l_beta	ankle_angle_l	subtalar_angle_l	mtp_angle_l	lumbar_extension	lumbar_bending	lumbar_rotation	arm_flex_r	arm_add_r	arm_rot_r	elbow_flex_r	pro_sup_r	wrist_flex_r	wrist_dev_r	arm_flex_l	arm_add_l	arm_rot_l	elbow_flex_l	pro_sup_l	wrist_flex_l	wrist_dev_l
      0.89000000	     -1.89246659	      6.51632797	     -2.69257822	     -0.24020596	      0.95808533	     -1.06990306	     23.94550702	    -15.56073628	     -8.71913326	    -62.87210594	     -1.09732526	      5.00564227	    -17.20250994	     17.05524391	      2.08164143	     -8.34751001	      9.40406597	     -8.30576888	     -0.14496301	      2.07821671	      2.46178030	     -3.52233597	     -1.12235212	     -6.02338080	     -1.63310249	      2.22351810	    -10.66863792	    -11.29514143	     23.37347424	     89.95437384	      0.00000000	      0.00000000	      5.04149986	     12.81048046	      0.60060586	     21.64978973	     89.95437384	      0.00000000	      0.00000000
      0.90000000	     -1.89778164	      5.93058779	     -1.82397225	     -0.22809970	      0.95852489	     -1.07215897	     24.73495950	    -14.99231940	    -10.13998187	    -61.14560378	     -1.06719211	      5.29242417	    -17.01867660	     17.04583098	      0.77707617	     -7.84771367	      9.19798620	     -7.45787340	     -0.13016445	      2.10240274	      1.38551674	     -3.93764262	     -1.27169774	     -5.34560673	     -2.72443007	      1.92685529	    -10.71500507	    -11.56109890	     22.77568203	     89.95437384	      0.00000000	      0.00000000	      6.17949284	     13.14623778	      0.73403920	     22.84600736	     89.95437384	      0.00000000	      0.00000000
      0.91000000	     -2.26153893	      5.54299266	     -1.02154565	     -0.21639567	      0.95800164	     -1.07393554	     26.06055121	    -14.59558149	    -11.39884923	    -59.42208485	     -1.03711103	      5.53132194	    -16.75658832	     16.93702007	     -0.04837687	     -7.51333772	      8.89281555	     -6.69643567	     -0.11687485	      2.22199273	      0.59471203	     -4.13286696	     -0.98953416	     -4.92925394	     -3.67997024	      1.55448329	    -10.68021104	    -11.86151322	     22.24478867	     89.95437384	      0.00000000	      0.00000000	      7.27277465	     13.56013637	      0.85443857	     24.05232997	     89.95437384	      0.00000000	      0.00000000
      0.92000000	     -2.64315209	      5.47432450	     -0.39786766	     -0.20505907	      0.95722320	     -1.07578568	     27.48146583	    -14.54937314	    -12.43265366	    -57.50552535	     -1.00366076	      5.77189904	    -16.44573162	     16.77208094	     -0.65222002	     -7.54341502	      9.11352302	     -6.26744262	     -0.10938751	      2.57317053	      0.27559125	     -4.23593838	     -0.70441193	     -4.84791071	     -4.40026200	      1.09727810	    -10.71002091	    -11.95886728	     21.90272707	     89.95437384	      0.00000000	      0.00000000	      8.47897456	     13.95681157	      0.94205659	     25.13420604	     89.95437384	      0.00000000	      0.00000000
      0.93000000	     -2.16760258	      4.40801672	      0.88363359	     -0.19286316	      0.95801266	     -1.07770862	     27.08769650	    -13.72273820	    -14.78884411	    -54.78768583	     -0.95622551	      5.87183693	    -16.00350518	     16.93287839	     -2.42187833	     -6.33242695	      8.53704150	     -5.48735181	     -0.09577236	      2.53739161	     -1.48241212	     -4.89388492	     -1.47217137	     -3.69619518	     -5.88879307	      1.00208653	    -10.58200160	    -13.16997347	     21.21382146	     89.95437384	      0.00000000	      0.00000000	      9.50924058	     14.33744437	      1.21292499	     26.67230219	     89.95437384	      0.00000000	      0.00000000
      0.94000000	     -2.25934740	      3.71601051	      1.60609014	     -0.18094675	      0.95728113	     -1.07869225	     27.69407851	    -12.95665614	    -16.22813575	    -52.20176995	     -0.91109276	      6.03792294	    -15.49011803	     17.13212505	     -3.19562362	     -5.38139115	      9.87663822	     -5.22947978	     -0.09127164	      1.24539711	     -4.12082320	    -11.25470911	     -1.44663044	     -2.97829161	     -6.75178096	      0.60074379	    -10.52275529	    -13.79502323	     20.84376722	     89.95437384	      0.00000000	      0.00000000	     10.52732700	     14.73017756	      1.40002130	     27.92779556	     89.95437384	      0.00000000	      0.00000000
      0.95000000	     -2.64286523	      3.40543710	      2.36526017	     -0.16931032	      0.95596729	     -1.07995837	     28.69559535	    -12.67091131	    -17.44904266	    -49.61957125	     -0.86602489	      5.96634383	    -14.80021208	     17.02510508	     -3.79569344	     -5.04529119	      9.64274300	     -4.76956758	     -0.08324466	      1.40613147	     -4.62841912	    -11.25391316	     -1.14184915	     -2.70435925	     -7.56793612	      0.28016122	    -10.48688832	    -14.21163401	     20.24104585	     89.95437384	      0.00000000	      0.00000000	     11.49443661	     15.17442507	      1.38958948	     29.24543792	     89.95437384	      0.00000000	      0.00000000
      0.96000000	     -2.46595020	      2.89318977	      3.19255467	     -0.15722579	      0.95538197	     -1.08110974	     28.73171019	    -12.21600496	    -19.09909552	    -46.57168697	     -0.81282928	      6.20233843	    -13.81072531	     16.93243891	     -4.91576279	     -4.37789464	      9.82602420	     -4.49885509	     -0.07851983	      1.71414430	     -5.73367540	    -11.48723546	     -1.45878243	     -2.16423711	     -8.42452970	     -0.08799534	    -10.38641099	    -15.18466213	     19.78992207	     89.95437384	      0.00000000	      0.00000000	     12.61146111	     15.50824188	      1.55252264	     30.38943555	     89.95437384	      0.00000000	      0.00000000
      0.97000000	     -2.95827754	      3.18651878	      3.54207094	     -0.14573107	      0.95329903	     -1.08201978	     30.00965325	    -12.45004213	    -19.80118684	    -44.02477622	     -0.76837730	      6.38113213	    -13.34942304	     16.80472661	     -5.28468172	     -4.75583939	     10.19131201	     -4.27685281	     -0.07464516	      2.12006778	     -5.84078766	    -11.48932622	     -1.02554248	     -2.55118303	     -8.80378093	     -0.65803692	    -10.37448312	    -15.23745929	     19.65781012	     89.95437384	      0.00000000	      0.00000000	     13.69580285	     15.91585988	      1.61397839	     31.36448619	     89.95437384	      0.00000000	      0.00000000
      0.98000000	     -2.59211452	      2.14748017	      4.49313795	     -0.13334368	      0.95277947	     -1.08232069	     29.40284140	    -11.26577759	    -21.59977942	    -40.22529765	     -0.70206389	      6.23754126	    -11.53008041	     16.14093871	     -6.38679205	     -3.24983921	     10.80465295	     -4.33769138	     -0.07570700	      1.93269459	     -8.54320172	    -12.35061664	     -1.52965703	     -1.48966417	     -9.74235040	     -0.84842723	    -10.14706460	    -17.08763893	     19.07787050	     89.95437384	      0.00000000	      0.00000000	     14.60457942	     16.40867065	      1.26671306	     32.84276525	     89.95437384	      0.00000000	      0.00000000
      0.99000000	     -2.89200058	      1.96253411	      5.05713422	     -0.12150036	      0.95085395	     -1.08274214	     29.98700590	    -10.94517475	    -22.63952395	    -36.96366846	     -0.64513772	      6.14769689	    -10.28265645	     16.01167553	     -6.93308593	     -2.97784874	     10.62542740	     -4.16365568	     -0.07266950	      2.30579033	     -8.76633112	    -12.49455679	     -1.28428823	     -1.38730500	    -10.33076160	     -1.27417299	    -10.06858479	    -17.46187337	     18.68603101	     89.95437384	      0.00000000	      0.00000000	     15.48710899	     16.88461167	      1.02836743	     34.03083662	     89.95437384	      0.00000000	      0.00000000
      1.00000000	     -2.69906216	      1.77635871	      5.72093680	     -0.10941308	      0.94964813	     -1.08330167	     29.81866206	    -10.66717034	    -24.03050618	    -33.53001050	     -0.58520908	      6.32772912	     -8.63214606	     15.71228483	     -7.96794973	     -2.59711872	     10.80910130	     -4.06995864	     -0.07103418	      2.56625011	     -9.41060701	    -12.81953509	     -1.63934028	     -1.21835892	    -10.96669073	     -1.64105779	     -9.92828823	    -18.39196664	     18.41946291	     89.95437384	      0.00000000	      0.00000000	     16.49182327	     17.28110609	      0.96898414	     35.15834800	     89.95437384	      0.00000000	      0.00000000
      1.01000000	     -2.74961011	      1.61308154	      6.27222715	     -0.09742642	      0.94795963	     -1.08351171	     29.94135731	    -10.32788916	    -25.15788169	    -30.11001478	     -0.52551890	      6.24068485	     -7.05101669	     15.39021943	     -8.73438094	     -2.25519250	     10.82258140	     -3.99665424	     -0.06975478	      2.91384582	     -9.86051415	    -13.09836241	     -1.72620790	     -1.10924162	    -11.44729065	     -2.04370056	     -9.80758928	    -19.16975460	     18.08204682	     89.95437384	      0.00000000	      0.00000000	     17.36270981	     17.74296059	      0.62373149	     36.44567548	     89.95437384	      0.00000000	      0.00000000
      1.02000000	     -2.87377687	      1.57307517	      6.75687277	     -0.08539518	      0.94607205	     -1.08356306	     30.14558864	    -10.06396681	    -26.10660928	    -26.80027134	     -0.46775298	      6.17483741	     -5.60525215	     15.08678288	     -9.44833317	     -2.03558614	     10.88111218	     -3.89683658	     -0.06801263	      3.04721070	    -10.32710951	    -13.34327634	     -1.73990315	     -1.14415104	    -11.91251591	     -2.37532743	     -9.66309906	    -19.75407751	     17.65432901	     89.95437384	      0.00000000	      0.00000000	     18.13449030	     18.18456407	      0.52155485	     37.71116101	     89.95437384	      0.00000000	      0.00000000
